<svg xmlns="http://www.w3.org/2000/svg" xmlns:xlink="http://www.w3.org/1999/xlink" width="2000" zoomAndPan="magnify" viewBox="0 0 1500 1499.999933" height="2000" preserveAspectRatio="xMidYMid meet" version="1.0"><defs><clipPath id="b6172d7d3b"><path d="M 15.859375 15.859375 L 1484.140625 15.859375 L 1484.140625 1484.140625 L 15.859375 1484.140625 Z M 15.859375 15.859375 " clip-rule="nonzero"/></clipPath><clipPath id="cd219ceaf6"><path d="M 750 15.859375 C 344.546875 15.859375 15.859375 344.546875 15.859375 750 C 15.859375 1155.453125 344.546875 1484.140625 750 1484.140625 C 1155.453125 1484.140625 1484.140625 1155.453125 1484.140625 750 C 1484.140625 344.546875 1155.453125 15.859375 750 15.859375 Z M 750 15.859375 " clip-rule="nonzero"/></clipPath><clipPath id="6a3a667cb7"><path d="M 0.859375 0.859375 L 1469.140625 0.859375 L 1469.140625 1469.140625 L 0.859375 1469.140625 Z M 0.859375 0.859375 " clip-rule="nonzero"/></clipPath><clipPath id="2ac194e260"><path d="M 735 0.859375 C 329.546875 0.859375 0.859375 329.546875 0.859375 735 C 0.859375 1140.453125 329.546875 1469.140625 735 1469.140625 C 1140.453125 1469.140625 1469.140625 1140.453125 1469.140625 735 C 1469.140625 329.546875 1140.453125 0.859375 735 0.859375 Z M 735 0.859375 " clip-rule="nonzero"/></clipPath><clipPath id="929dc426a1"><rect x="0" width="1470" y="0" height="1470"/></clipPath><clipPath id="d1eebeba5a"><path d="M 33.828125 15.859375 L 1466.328125 15.859375 L 1466.328125 1448.359375 L 33.828125 1448.359375 Z M 33.828125 15.859375 " clip-rule="nonzero"/></clipPath></defs><g clip-path="url(#b6172d7d3b)"><g clip-path="url(#cd219ceaf6)"><g transform="matrix(1, 0, 0, 1, 15, 15)"><g clip-path="url(#929dc426a1)"><g clip-path="url(#6a3a667cb7)"><g clip-path="url(#2ac194e260)"><path fill="#1e1e1e" d="M 0.859375 0.859375 L 1469.140625 0.859375 L 1469.140625 1469.140625 L 0.859375 1469.140625 Z M 0.859375 0.859375 " fill-opacity="1" fill-rule="nonzero"/></g></g></g></g></g></g><g clip-path="url(#d1eebeba5a)"><path fill="#ffffff" d="M 864.199219 798.429688 L 1466.164062 732.027344 L 864.199219 665.621094 L 1056.96875 425.054688 L 816.398438 617.824219 L 749.996094 15.859375 L 683.589844 617.824219 L 443.019531 425.054688 L 635.789062 665.621094 L 33.828125 732.027344 L 635.789062 798.429688 L 443.019531 1039 L 683.589844 846.230469 L 749.996094 1448.195312 L 816.398438 846.230469 L 1056.96875 1039 L 864.199219 798.429688 " fill-opacity="1" fill-rule="nonzero"/></g></svg>