<svg height="2500" viewBox="0 213.795624 350.645 175.171376" width="2253" xmlns="http://www.w3.org/2000/svg"><path d="m47.013 222.516v17.845h4.956v-23.845c0-1.462-1.252-2.715-2.713-2.715-.731 0-1.565.418-2.036.993l-14.976 18.366v-16.591a2.784 2.784 0 0 0 -2.766-2.768c-.731 0-1.408.313-1.93.836l-27.548 25.723h7.304l19.984-18.68v15.861a3.272 3.272 0 0 0 3.287 3.287c1.148 0 2.035-.522 2.714-1.356zm247.852.418v17.427h-4.958v-23.845a2.695 2.695 0 0 1 2.715-2.715c.782 0 1.512.313 2.138 1.096l13.826 16.854v-17.48h4.856v23.846a2.696 2.696 0 0 1 -2.714 2.714c-.783 0-1.512-.314-2.142-1.094zm-175.844 0v17.427h-4.957v-23.845a2.695 2.695 0 0 1 2.713-2.715c.784 0 1.514.313 2.14 1.096l13.828 16.854v-17.48h4.853v23.846c0 1.514-1.2 2.714-2.715 2.714-.782 0-1.512-.314-2.138-1.094zm64.494 4.382c0 4.906 3.6 9.08 8.766 9.08 3.078 0 5.165-1.617 6.106-3.81h5.48c-1.048 4.28-5.533 8.245-11.637 8.245-8.14 0-13.775-6.052-13.775-13.514s5.687-13.513 13.775-13.513c6.157 0 10.697 3.705 11.687 8.558h-5.583c-.782-2.193-2.817-4.122-6.053-4.122-5.166-.002-8.766 4.172-8.766 9.076m35.898-13.515c-7.461 0-13.461 6.053-13.461 13.515s6 13.513 13.461 13.513 13.462-6.051 13.462-13.513c.002-7.462-5.998-13.515-13.462-13.515m0 22.594c-4.748 0-8.401-4.175-8.401-9.08s3.653-9.08 8.401-9.08 8.402 4.175 8.402 9.08-3.653 9.08-8.402 9.08m-64.336-22.594c-7.462 0-13.462 6.053-13.462 13.515s6 13.513 13.462 13.513 13.462-6.051 13.462-13.513-6-13.515-13.462-13.515m0 22.594c-4.748 0-8.401-4.175-8.401-9.08s3.653-9.08 8.401-9.08 8.402 4.175 8.402 9.08-3.655 9.08-8.402 9.08m121.108-17.585v-4.538h-19.513v4.538h7.303v21.551h4.957v-21.551zm-209.345 21.551h16.333v-4.54h-11.375v-21.55h-4.957zm213.103-26.089h4.957v26.09h-4.957zm-223.015 0h4.957v26.09h-4.957zm191.394 14.608c3.547-.73 5.791-3.545 5.791-7.198 0-4.28-3.078-7.41-7.828-7.41h-9.964v26.09h4.957v-11.272h1.199l8.505 11.27h5.95zm-7.044-4.121v-6.156h3.913c2.4 0 3.862 1.094 3.862 3.078 0 1.982-1.462 3.076-3.862 3.076h-3.913zm81.817-10.122c-.522-.523-1.201-.836-1.932-.836a2.784 2.784 0 0 0 -2.765 2.766v23.793h4.958v-6.104h13.617l6.522 6.104h7.15zm.26 15.08v-8.192l8.767 8.192zm-222.805-14.611c-.367-.783-1.045-1.303-1.984-1.303s-1.617.522-1.983 1.303l-11.635 25.254h5.27l2.765-6.104h11.064l2.766 6.104h5.478zm-5.531 14.611 3.547-7.775 3.444 7.775zm82.122 42.637c0-.73.47-1.46 1.147-2.19l9.182-9.969c1.41-1.563 2.506-2.816 2.506-4.54 0-1.876-1.46-2.973-3.704-2.973-2.296 0-3.809 1.774-3.809 3.86h-4.906c0-4.016 3.183-8.295 8.715-8.295 5.478 0 8.662 3.18 8.662 7.094 0 2.768-1.67 4.802-3.913 7.253l-7.045 7.67h11.115v4.54h-15.497c-1.462.003-2.453-.99-2.453-2.45m-40.857 0c0-.73.47-1.46 1.147-2.19l9.184-9.969c1.407-1.563 2.504-2.816 2.504-4.54 0-1.876-1.46-2.973-3.704-2.973-2.297 0-3.809 1.774-3.809 3.86h-4.906c0-4.016 3.182-8.295 8.715-8.295 5.478 0 8.662 3.18 8.662 7.094 0 2.768-1.67 4.802-3.914 7.253l-7.045 7.67h11.116v4.54h-15.497c-1.462.003-2.453-.99-2.453-2.45m29.481-24.105c-6.158 0-9.08 5.74-9.08 13.514 0 7.772 2.974 13.513 9.08 13.513s9.078-5.74 9.078-13.513c.001-7.775-2.972-13.514-9.078-13.514m0 22.594c-2.505 0-4.018-3.183-4.018-9.08s1.513-9.08 4.018-9.08c2.61 0 4.017 3.182 4.017 9.08 0 5.896-1.407 9.08-4.017 9.08m39.659-13.411 5.216-8.714h-5.06l-7.62 12.783c-.835 1.41-1.407 3.077-1.407 4.853 0 4.906 4.018 8.924 8.924 8.924s8.923-4.018 8.923-8.924c-.003-4.904-4.02-8.922-8.976-8.922m.05 13.41c-2.35 0-3.86-2.035-3.86-4.488s1.51-4.486 3.86-4.486c2.348 0 3.863 2.033 3.863 4.486s-1.515 4.489-3.862 4.489" fill="#a6bbc8"/><g fill-rule="evenodd" stroke-width="4.543"><path d="m167.357 357.34c-.89 14.541-13.047 26.07-27.911 26.07-14.86 0-27.012-11.529-27.902-26.075a26.92 26.92 0 0 1 .259-5.86c1.572-10.476 9.04-19.034 18.943-22.25a27.906 27.906 0 0 0 .264-5.865c-13.538 3.475-23.736 15.136-24.985 29.346a32.295 32.295 0 0 0 -.018 5.574c1.353 17.172 15.808 30.687 33.439 30.687 17.63 0 32.095-13.515 33.453-30.687a33.062 33.062 0 0 1 -5.542-.94" fill="#feaf30"/><path d="m136.552 322.415c-1.363-17.172-15.818-30.678-33.457-30.678-18.526 0-33.553 14.924-33.553 33.335s15.027 33.335 33.553 33.335c.98 0 1.953-.045 2.911-.131a31.059 31.059 0 0 1 .014-5.574 27.411 27.411 0 0 1 -2.926.145c-15.436 0-27.956-12.434-27.956-27.775 0-15.345 12.52-27.783 27.956-27.783 14.869 0 27.03 11.525 27.911 26.075a26.998 26.998 0 0 1 -.254 5.86c-1.576 10.472-9.05 19.03-18.943 22.251a26.203 26.203 0 0 0 -.268 5.86c13.523-3.484 23.731-15.127 24.985-29.346a32.208 32.208 0 0 0 .122-2.917c0-.895-.036-1.776-.095-2.657" fill="#0181cc"/><path d="m178.718 352.702a30.228 30.228 0 0 1 -5.851 0 28.392 28.392 0 0 1 -5.77-1.227c-9.898-3.225-17.366-11.78-18.952-22.26a27.588 27.588 0 0 0 -5.77-1.213c1.246 14.201 11.453 25.849 24.986 29.338a34.63 34.63 0 0 0 8.445 1.072c.977 0 1.93-.05 2.894-.136a34.184 34.184 0 0 1 -.11-2.649c0-.986.046-1.962.128-2.925" fill="#241e20"/><path d="m147.89 323.36a33.185 33.185 0 0 0 -8.449-1.063c-.967 0-1.935.045-2.889.118a34.97 34.97 0 0 1 -.027 5.587 29.065 29.065 0 0 1 5.846 0 27.86 27.86 0 0 1 24.727 23.473c1.849.6 3.77 1.022 5.77 1.227-1.246-14.206-11.449-25.867-24.977-29.342" fill="#feaf30"/><path d="m209.246 322.415c-1.354-17.172-15.818-30.678-33.449-30.678-17.626 0-32.086 13.51-33.448 30.678 1.894.159 3.743.481 5.542.945.89-14.546 13.042-26.076 27.906-26.076s27.011 11.53 27.906 26.076a27.974 27.974 0 0 1 -.254 5.86 27.884 27.884 0 0 1 -18.943 22.255 26.593 26.593 0 0 0 -.264 5.86c13.524-3.484 23.732-15.127 24.976-29.346a33.426 33.426 0 0 0 .028-5.574"/><path d="m240.055 357.34c-.895 14.541-13.047 26.07-27.902 26.07-14.873 0-27.02-11.529-27.906-26.075a27.829 27.829 0 0 1 .254-5.86c1.572-10.476 9.04-19.034 18.943-22.25.205-1.363.318-2.749.318-4.157 0-.577-.031-1.145-.059-1.708-13.528 3.475-23.736 15.136-24.985 29.346a34.839 34.839 0 0 0 -.127 2.921c0 .89.045 1.772.109 2.653 1.358 17.172 15.809 30.687 33.453 30.687 17.626 0 32.081-13.515 33.44-30.687a32.785 32.785 0 0 1 -5.543-.94" fill="#02a650"/><path d="m248.495 291.737c-17.635 0-32.085 13.51-33.453 30.678 1.899.159 3.757.481 5.542.95.9-14.551 13.047-26.076 27.911-26.076 15.436 0 27.96 12.438 27.96 27.783 0 15.341-12.524 27.775-27.96 27.775a28.074 28.074 0 0 1 -8.704-1.372c-9.89-3.22-17.358-11.78-18.943-22.246a27.084 27.084 0 0 0 -5.77-1.227c1.24 14.201 11.448 25.849 24.981 29.333 1.781.468 3.634.786 5.533.94.954.091 1.917.132 2.903.132 18.53 0 33.549-14.932 33.549-33.335 0-18.411-15.019-33.335-33.549-33.335" fill="#e7384f"/><path d="m220.589 323.36a33.185 33.185 0 0 0 -8.44-1.063c-.982 0-1.95.045-2.899.118a34.961 34.961 0 0 1 -.032 5.587 29.337 29.337 0 0 1 5.86 0c1.981.205 3.925.618 5.77 1.222 9.903 3.221 17.371 11.78 18.943 22.251 1.854.6 3.784 1.022 5.774 1.227-1.24-14.206-11.452-25.867-24.976-29.342" fill="#02a650"/></g></svg>